<?xml version="1.0" encoding="UTF-8" standalone="no"?>
<!-- Created with Inkscape (http://www.inkscape.org/) -->

<svg
   width="165.66656mm"
   height="21.814852mm"
   viewBox="0 0 165.66656 21.814852"
   version="1.1"
   id="svg1"
   xml:space="preserve"
   inkscape:version="1.4.3 (0d15f75, 2025-12-25)"
   sodipodi:docname="wavenet_logo.svg"
   xmlns:inkscape="http://www.inkscape.org/namespaces/inkscape"
   xmlns:sodipodi="http://sodipodi.sourceforge.net/DTD/sodipodi-0.dtd"
   xmlns:xlink="http://www.w3.org/1999/xlink"
   xmlns="http://www.w3.org/2000/svg"
   xmlns:svg="http://www.w3.org/2000/svg"><sodipodi:namedview
     id="namedview1"
     pagecolor="#ffffff"
     bordercolor="#000000"
     borderopacity="0.25"
     inkscape:showpageshadow="2"
     inkscape:pageopacity="0.0"
     inkscape:pagecheckerboard="0"
     inkscape:deskcolor="#d1d1d1"
     inkscape:document-units="mm"
     inkscape:zoom="1"
     inkscape:cx="35.5"
     inkscape:cy="317"
     inkscape:window-width="3440"
     inkscape:window-height="1366"
     inkscape:window-x="-8"
     inkscape:window-y="-8"
     inkscape:window-maximized="1"
     inkscape:current-layer="layer1"><inkscape:page
       x="0"
       y="0"
       width="165.66656"
       height="21.814852"
       id="page2"
       margin="0"
       bleed="0" /></sodipodi:namedview><defs
     id="defs1"><linearGradient
       id="swatch11"
       inkscape:swatch="solid"><stop
         style="stop-color:#33549b;stop-opacity:1;"
         offset="0"
         id="stop11" /></linearGradient><linearGradient
       id="swatch8"
       inkscape:swatch="solid"><stop
         style="stop-color:#000000;stop-opacity:1;"
         offset="0"
         id="stop8" /></linearGradient><linearGradient
       id="swatch7"
       inkscape:swatch="solid"><stop
         style="stop-color:#1eb28f;stop-opacity:1;"
         offset="0"
         id="stop7" /></linearGradient><linearGradient
       id="swatch6"
       inkscape:swatch="solid"><stop
         style="stop-color:#000000;stop-opacity:1;"
         offset="0"
         id="stop6" /></linearGradient><linearGradient
       id="swatch5"
       inkscape:swatch="solid"><stop
         style="stop-color:#000000;stop-opacity:1;"
         offset="0"
         id="stop5" /></linearGradient><linearGradient
       id="swatch4"
       inkscape:swatch="solid"><stop
         style="stop-color:#000000;stop-opacity:1;"
         offset="0"
         id="stop4" /></linearGradient><linearGradient
       id="swatch3"
       inkscape:swatch="solid"><stop
         style="stop-color:#000000;stop-opacity:0.02929427;"
         offset="0"
         id="stop3" /></linearGradient><linearGradient
       id="swatch2"
       inkscape:swatch="solid"><stop
         style="stop-color:#435a8b;stop-opacity:1;"
         offset="0"
         id="stop2" /></linearGradient><linearGradient
       id="swatch1"
       inkscape:swatch="solid"><stop
         style="stop-color:#435a8b;stop-opacity:1;"
         offset="0"
         id="stop1" /></linearGradient><linearGradient
       inkscape:collect="always"
       xlink:href="#swatch2"
       id="linearGradient1"
       x1="89.899277"
       y1="149.30502"
       x2="105.2315"
       y2="149.30502"
       gradientUnits="userSpaceOnUse"
       gradientTransform="translate(0,37.570851)" /><linearGradient
       inkscape:collect="always"
       xlink:href="#swatch3"
       id="linearGradient2"
       x1="89.899277"
       y1="149.30502"
       x2="105.2315"
       y2="149.30502"
       gradientUnits="userSpaceOnUse"
       gradientTransform="translate(0,37.570851)" /><linearGradient
       inkscape:collect="always"
       xlink:href="#swatch3"
       id="linearGradient3"
       x1="105.1392"
       y1="149.34178"
       x2="122.45776"
       y2="149.34178"
       gradientUnits="userSpaceOnUse"
       gradientTransform="translate(0,37.570851)" /><linearGradient
       inkscape:collect="always"
       xlink:href="#swatch3"
       id="linearGradient5"
       x1="144.97736"
       y1="148.83311"
       x2="160.51524"
       y2="148.83311"
       gradientUnits="userSpaceOnUse"
       gradientTransform="translate(0,37.570851)" /><linearGradient
       inkscape:collect="always"
       xlink:href="#swatch3"
       id="linearGradient6"
       x1="161.84438"
       y1="148.8111"
       x2="177.8951"
       y2="148.8111"
       gradientUnits="userSpaceOnUse"
       gradientTransform="translate(-1.0583333,37.570851)" /><linearGradient
       inkscape:collect="always"
       xlink:href="#swatch7"
       id="linearGradient7"
       x1="179.60674"
       y1="148.10062"
       x2="186.97913"
       y2="148.10062"
       gradientUnits="userSpaceOnUse"
       gradientTransform="translate(0.28361279,37.570851)" /><linearGradient
       inkscape:collect="always"
       xlink:href="#swatch3"
       id="linearGradient8"
       x1="179.60674"
       y1="148.10062"
       x2="186.97913"
       y2="148.10062"
       gradientUnits="userSpaceOnUse"
       gradientTransform="translate(0.28361279,37.570851)" /><linearGradient
       inkscape:collect="always"
       xlink:href="#swatch7"
       id="linearGradient9"
       x1="144.90237"
       y1="149.22745"
       x2="160.16922"
       y2="149.22745"
       gradientUnits="userSpaceOnUse"
       gradientTransform="translate(0,37.570851)" /></defs><g
     inkscape:label="Layer 1"
     inkscape:groupmode="layer"
     id="layer1"
     transform="translate(-22.555048,-175.17495)"><path
       style="font-weight:800;font-size:22.604px;font-family:Montserrat;-inkscape-font-specification:'Montserrat, Ultra-Bold';opacity:1;fill:#425a8b;fill-opacity:0.996078;stroke-width:0.776097;paint-order:stroke fill markers"
       d="m 70.567794,195.49204 -4.73172,-17.15835 h 4.252295 l 3.981315,14.85424 h -2.146992 l 4.189761,-14.85424 h 3.793715 l 3.960471,14.85424 h -2.063614 l 4.106383,-14.85424 h 3.939626 l -4.73172,17.15835 H 80.698262 L 77.321439,182.8684 h 1.188142 l -3.522735,12.62364 z"
       id="text15"
       aria-label="W"
       inkscape:export-filename="wavenet_logo2.svg"
       inkscape:export-xdpi="96"
       inkscape:export-ydpi="96" /><path
       style="font-weight:800;font-size:23.1225px;font-family:Montserrat;-inkscape-font-specification:'Montserrat, Ultra-Bold';opacity:1;fill:#435a8b;fill-opacity:1;stroke:url(#linearGradient3);stroke-width:0.094;stroke-dasharray:none;paint-order:stroke fill markers"
       d="m 111.29713,195.49204 -5.19882,-17.05916 4.03935,-0.0331 4.17041,13.39904 3.27927,-13.49826 4.27511,0.0661 -4.2615,17.05916 z"
       id="text15-6"
       aria-label="V"
       sodipodi:nodetypes="cccccccc" /><path
       d="m 177.01047,189.31382 c 0.0431,3.01608 -1.41936,4.71852 -2.61936,5.51852 -1.3,0.8 -3.26249,0.59196 -5.16249,0.59196 -2.5,0 -5.07296,-0.12704 -6.47296,-1.52704 -1.6,-1.6 -1.95566,-4.42619 -1.95566,-7.42619 0,-2.9 0.6,-4.7 2.3,-6.4 1.4,-1.5 3.3,-1.98953 5.5,-1.98953 2.5,0 5.4,0.48953 6.8,1.98953 1.6,1.7 1.8,2.7 1.8,5.7 v 1.6 h -11.7 c 0,1.4 0.18587,3.55201 0.88587,4.35201 0.6,1 2.00646,1.28307 3.00646,1.28307 1.11742,0 2.18158,0.0205 2.74762,-0.98112 0.57588,-1.019 0.70122,-1.91693 0.76103,-2.72168 z m -4.46492,-4.47783 c 0,-1.4 -0.15444,-2.41169 -0.75444,-3.11169 -0.7,-0.7 -1.85603,-1.11693 -2.75603,-1.11693 -1,0 -1.64176,0.251 -2.58709,1.00645 -1.01571,0.86371 -0.84799,1.95725 -0.84799,3.25725 z"
       id="text16-2"
       style="font-weight:bold;font-stretch:condensed;font-size:36.8447px;font-family:Arial;-inkscape-font-specification:'Arial, Bold Condensed';opacity:1;fill:#1eb28f;fill-opacity:1;stroke:url(#linearGradient6);stroke-width:0.279;stroke-dasharray:none;paint-order:stroke fill markers"
       aria-label="e"
       sodipodi:nodetypes="ccscscscccccsscccscccc" /><path
       d="m 89.908422,184.2319 c 0.235719,-2.89683 1.12872,-4.14218 2.275368,-4.92734 1.146651,-0.78516 2.79555,-1.04677 5.05609,-1.04677 2.053045,0 4.31751,0.2061 5.3222,0.68356 1.00468,0.46685 1.74212,1.19863 2.14619,1.93074 0.41497,0.72149 0.52323,1.75543 0.52323,3.69711 l -0.0491,5.22025 c 0,0.18209 -0.0256,5.88626 -0.0256,5.88626 l -4.00498,0.0462 -0.0809,-1.4635 c -0.78627,0.74271 -1.461785,0.8698 -2.357269,1.24116 -0.895476,0.37136 -2.247892,0.22632 -3.263496,0.22632 -1.790958,0 -3.220605,-0.47083 -4.25805,-1.41515 -1.026524,-0.9443 -1.193613,-1.97393 -1.193613,-3.41694 0,-0.95492 0.673552,-2.4533 1.44079,-3.16295 1.263331,-0.98485 2.635178,-1.50214 4.799327,-2.31814 2.151328,-0.39259 3.641974,-0.75865 4.471941,-1.09817 v -0.44563 c 0,-0.85944 0.27768,-2.06484 -0.15914,-2.4256 -0.43683,-0.37135 -1.502992,-0.9155 -2.714266,-0.87233 -0.743741,0.0265 -2.525934,0.35668 -2.984595,0.67501 -0.458658,0.3077 -0.474492,2.91012 -0.474492,2.91012 z m 11.033498,2.43289 c -0.5897,0.19098 -1.688752,0.45217 -2.801088,0.8828 -1.216928,0.47111 -2.162533,0.67426 -2.55567,0.92889 -0.70911,0.41381 -1.179804,1.27561 -1.179804,1.91222 0,0.626 0.119306,1.89201 0.319174,2.30149 0.290642,0.59545 1.91141,0.36641 2.654002,0.36641 0.829959,0 1.895999,-0.18502 2.649506,-0.71553 0.55695,-0.40319 0.92277,-0.96272 0.93215,-1.81086 0.12013,-0.38197 0.0899,-1.10959 0.0479,-2.18041 z"
       id="text16-5"
       style="font-weight:bold;font-size:31.4144px;font-family:Arial;-inkscape-font-specification:'Arial, Bold';opacity:1;fill:url(#linearGradient1);stroke:url(#linearGradient2);stroke-width:0.2;stroke-dasharray:none;paint-order:stroke fill markers"
       aria-label="a"
       sodipodi:nodetypes="csscccccccsscscccscsccccscsssccsc" /><path
       style="font-weight:bold;font-size:33.5675px;font-family:Arial;-inkscape-font-specification:'Arial, Bold';opacity:1;fill:url(#linearGradient9);stroke:url(#linearGradient5);stroke-width:0.103;stroke-dasharray:none;paint-order:stroke fill markers"
       d="m 160.07091,195.49204 -4.60402,-0.0702 0.0935,-8.97755 c 0.0188,-1.80717 0.22845,-4.42922 -0.6747,-5.10782 -0.42805,-0.31241 -1.06398,-0.42184 -1.67393,-0.42184 -0.78118,0 -2.20707,-0.15103 -2.82773,0.29528 -0.62066,0.44629 -0.69791,0.71024 -0.93333,1.44665 -0.22473,0.7364 -0.10877,2.8228 -0.0798,4.80864 l 0.11693,8.0268 h -4.51048 l -0.0234,-16.90873 4.14268,-0.0702 4e-5,1.86252 c 1.2302,-1.72774 2.17108,-2.0893 4.42536,-2.21742 2.62903,-0.14943 3.68775,-0.094 5.45603,1.59406 0.42804,0.58019 0.76909,0.93447 0.92961,1.67088 0.17121,0.73639 0.16069,1.65135 0.21005,3.02285 z"
       id="text17"
       aria-label="n"
       sodipodi:nodetypes="ccscsscscccccsccsc" /><path
       style="font-weight:bold;font-size:36.0402px;font-family:Arial;-inkscape-font-specification:'Arial, Bold';opacity:1;fill:url(#linearGradient7);stroke:url(#linearGradient8);stroke-width:0.13;stroke-dasharray:none;paint-order:stroke fill markers"
       d="m 187.53754,179.75995 0.0702,2.33185 -3.44295,3.1e-4 -0.0309,7.7425 c -0.007,1.6981 -0.0566,2.57156 0.40629,2.89299 0.88077,0.61158 3.61492,0.33035 3.61492,0.33035 l -0.0504,2.4107 -4.07608,-0.004 c -0.76244,-8.1e-4 -1.47442,-0.0597 -2.08637,-0.31135 -0.61197,-0.26174 -1.10475,-0.53608 -1.39568,-0.93875 -0.28089,-0.41272 -0.41037,-1.09042 -0.52071,-1.78503 -0.0902,-0.49327 -0.13544,-1.48988 -0.13544,-2.98983 v -6.99138 -3.38243 -3.18614 l 4.24354,-0.0281 -0.0234,3.95601 z"
       id="text18"
       aria-label="t"
       sodipodi:nodetypes="cccssccscccscccccc" /><g
       id="g20"
       transform="translate(0.46772167,37.790039)"
       style="opacity:1"><path
         style="fill:#435a8a;fill-opacity:0.992157;stroke-width:0.968999;stroke-dasharray:none;paint-order:stroke fill markers"
         d="m 22.087325,148.435 4.151517,8.83324 c 0.165577,0.3523 0.708741,1.31341 1.812765,1.6519 0.765442,0.23468 1.835483,0.32734 2.560775,-0.0117 1.069048,-0.49969 1.906782,-1.13715 2.268451,-1.91766 l 7.249685,-15.64529 c 0,0 0.334331,-0.83947 0.742508,-1.06991 0.364966,-0.20605 0.949282,-0.31373 1.257003,-0.0292 0.346464,0.32037 0.432607,0.62746 0.619731,0.95883 2.934819,5.19723 7.857723,16.08962 7.857723,16.08962 0.458792,0.93943 1.313404,1.43218 2.198293,1.71888 0.839836,0.27211 1.797995,0.25088 2.646641,-0.0979 0.63317,-0.26024 1.35211,-0.8578 1.597933,-1.37543 l 4.314732,-9.08549 -2.455538,0.0702 -3.578071,7.03921 c -0.335927,0.66088 -0.752039,1.03855 -1.309621,1.04068 -0.613616,0.002 -1.23965,-0.69655 -1.449935,-1.13422 l -7.76418,-16.15977 c -0.378784,-0.78837 -1.222476,-1.26471 -2.10475,-1.56687 -0.790972,-0.27089 -1.712702,-0.23989 -2.508156,0.0175 -0.680681,0.22028 -1.282997,0.70168 -1.748111,1.2453 -0.43062,0.5033 -0.888669,1.77735 -0.888669,1.77735 l -6.735194,14.78 c -0.2331,0.51152 -0.865933,1.11639 -1.426551,1.15762 -0.619027,0.0455 -1.23692,-0.39453 -1.511583,-0.95115 l -3.609968,-7.31584 z"
         id="path19"
         sodipodi:nodetypes="csssscssasassccsassssscssscc" /><path
         style="fill:#1db18e;fill-opacity:0.992157;stroke-width:0.968999;stroke-dasharray:none;paint-order:stroke fill markers"
         d="m 36.67511,158.92714 1.450208,-0.0311 c 1.179795,-0.0253 1.873709,-1.29425 2.235378,-2.07476 l 7.249685,-15.64529 c 0,0 0.334331,-0.83947 0.742508,-1.06991 0.364966,-0.20605 0.949282,-0.31373 1.257003,-0.0292 0.346464,0.32037 0.431753,0.62794 0.619731,0.95883 2.945066,5.18411 7.932137,16.03174 7.932137,16.03174 0.458792,0.93943 1.268971,1.42876 2.123879,1.77676 0.499758,0.20343 1.613994,0.12373 1.613994,0.12373 l 0.01666,-2.59217 c 0,0 -0.911881,0.0493 -1.274476,-0.18007 -0.301856,-0.19094 -0.379754,-0.45677 -0.590039,-0.89444 L 52.2876,139.14154 c -0.378784,-0.78837 -1.222476,-1.26471 -2.10475,-1.56687 -0.790972,-0.27089 -1.712702,-0.23989 -2.508156,0.0175 -0.680681,0.22028 -1.282997,0.70168 -1.748111,1.2453 -0.43062,0.5033 -0.888669,1.77735 -0.888669,1.77735 l -6.669048,14.87922 c -0.375579,0.83795 -1.693727,0.69566 -1.693727,0.69566 z"
         id="path19-4"
         sodipodi:nodetypes="csscssasaccassssscscc" /></g><use
       x="0"
       y="0"
       xlink:href="#text16-2"
       id="use11"
       transform="translate(-37.769271)"
       style="fill:#435a8b;fill-opacity:1;stroke:#000000;stroke-opacity:1" /><path
       style="opacity:1;fill:#435a8b;fill-opacity:1;stroke:#000000;stroke-width:0.0868572;stroke-dasharray:none;stroke-opacity:1;paint-order:stroke fill markers"
       d="m 490.26694,738.38959 c -7.34468,-0.38438 -12.35745,-1.6655 -15.88668,-4.06019 -1.19013,-0.80755 -3.20958,-2.91091 -4.12933,-4.30092 -2.29353,-3.4662 -3.84824,-8.38777 -4.61628,-14.61319 -0.68165,-5.52527 -0.68284,-14.14851 -0.003,-18.6481 0.96872,-6.40756 3.431,-11.27179 8.15154,-16.10336 4.32465,-4.42637 9.29266,-6.62347 16.59494,-7.33911 2.79011,-0.27343 9.10564,-0.0957 12.46276,0.35079 5.04345,0.67073 8.69235,1.68759 12.1092,3.37455 2.64262,1.3047 4.12146,2.41956 5.9529,4.48771 3.47587,3.92515 4.7894,6.60647 5.55452,11.33849 0.21183,1.31012 0.30931,3.51827 0.37655,8.52947 l 0.0907,6.76171 h -22.11822 -22.11822 v 1.2021 c 0,1.73243 0.32714,5.68375 0.63226,7.63674 0.95675,6.12379 3.20532,9.66121 7.1553,11.25669 2.52994,1.02188 5.076,1.37353 9.00622,1.2439 4.06341,-0.13403 5.54175,-0.58041 7.26713,-2.1943 1.67749,-1.56909 3.26389,-5.56152 3.83183,-9.64338 l 0.289,-2.07713 h 7.67983 7.67983 l -0.11303,2.102 c -0.34077,6.33774 -2.61788,11.84158 -6.54888,15.82889 -2.5914,2.62851 -4.6469,3.79085 -8.03956,4.54618 -1.59398,0.35487 -2.25012,0.3823 -10.1016,0.4223 -4.61829,0.0235 -9.64036,-0.0223 -11.16016,-0.10184 z M 509.452,698.59126 c 0.0214,-0.032 -0.0219,-1.29117 -0.0963,-2.79819 -0.21977,-4.45148 -1.1675,-7.37833 -2.97795,-9.19675 -2.23105,-2.24087 -5.99003,-3.80404 -9.6352,-4.0068 -3.27225,-0.18202 -5.72388,0.49288 -8.52005,2.34542 -1.90077,1.25931 -3.40052,2.71927 -3.99081,3.88494 -0.91356,1.80404 -1.05349,2.58943 -1.14501,6.42664 l -0.086,3.60771 13.20624,-0.10242 c 7.26343,-0.0563 13.22375,-0.12858 13.24516,-0.16055 z"
       id="path11"
       transform="scale(0.26458333)" /></g></svg>
